<svg width="512" height="512" viewBox="0 0 100 100" xmlns="http://www.w3.org/2000/svg">
  <rect width="100" height="100" rx="20" fill="#F3D9C8"/>
  <g>
    <!-- Dark cat (left, navy) -->
    <path d="M50 8 C28 8 10 26 10 50 C10 74 28 92 50 92 C50 92 50 70 50 50 C50 30 50 8 50 8 Z" fill="#3C4A4A"/>
    <ellipse cx="34" cy="22" rx="12" ry="11" fill="#3C4A4A"/>
    <polygon points="24,14 28,5 33,14" fill="#3C4A4A"/>
    <polygon points="34,13 38,5 43,13" fill="#3C4A4A"/>
    <ellipse cx="33" cy="21" rx="2.2" ry="2" fill="white" opacity="0.85"/>
    <line x1="20" y1="24" x2="28" y2="23" stroke="white" stroke-width="0.8" opacity="0.5"/>
    <line x1="20" y1="26" x2="28" y2="26" stroke="white" stroke-width="0.8" opacity="0.5"/>
    <path d="M50 80 Q42 88 38 90 Q34 93 36 96 Q40 99 46 96 Q52 93 52 86 Z" fill="#3C4A4A"/>

    <!-- Cream cat (right, light) -->
    <path d="M50 8 C72 8 90 26 90 50 C90 74 72 92 50 92 C50 92 50 70 50 50 C50 30 50 8 50 8 Z" fill="#EFE3D3"/>
    <ellipse cx="66" cy="22" rx="12" ry="11" fill="#EFE3D3"/>
    <polygon points="57,13 62,5 67,14" fill="#EFE3D3"/>
    <polygon points="67,13 72,5 76,14" fill="#EFE3D3"/>
    <ellipse cx="67" cy="21" rx="2.2" ry="2" fill="#3C4A4A" opacity="0.7"/>
    <line x1="72" y1="24" x2="80" y2="23" stroke="#3C4A4A" stroke-width="0.8" opacity="0.4"/>
    <line x1="72" y1="26" x2="80" y2="26" stroke="#3C4A4A" stroke-width="0.8" opacity="0.4"/>
    <path d="M50 80 Q58 88 62 90 Q66 93 64 96 Q60 99 54 96 Q48 93 48 86 Z" fill="#EFE3D3"/>

    <circle cx="50" cy="50" r="41" stroke="#3C4A4A" stroke-width="1.5" fill="none" opacity="0.15"/>
  </g>
</svg>
